<?xml version="1.0" encoding="utf-8"?>
<!-- Generator: Adobe Illustrator 22.0.0, SVG Export Plug-In . SVG Version: 6.00 Build 0)  -->
<svg version="1.1" id="Layer_1" xmlns="http://www.w3.org/2000/svg" xmlns:xlink="http://www.w3.org/1999/xlink" x="0px" y="0px"
	 viewBox="0 0 96 96" style="enable-background:new 0 0 96 96;" xml:space="preserve">
<style type="text/css">
	.st0{fill:#408BFC;}
</style>
<title>technology-iot-icon</title>
<path class="st0" d="M92.8,59.4c-1-4.4-5.4-7.1-9.8-6.1c-2.1,0.5-3.9,1.8-5,3.6l0,0l-12.7-3.4c1-5.6-0.6-11.4-4.3-15.8l17.3-17.3
	l-2.5-2.5L58.5,35.2c-4.4-3.7-10.2-5.2-15.9-4.2l-4-14.9c1-0.6,1.8-1.4,2.5-2.3c2-3.2,1.1-7.5-2.2-9.6c0,0,0,0,0,0
	c-3.3-2-7.5-1.1-9.6,2.2c-2,3.3-1,7.6,2.3,9.6c1.1,0.7,2.3,1,3.6,1l0,0l4,15c-5.4,1.9-9.6,6.2-11.6,11.5L3.9,37.1L3,40.5l23.7,6.3
	c-1,5.6,0.6,11.4,4.2,15.8l-6.3,6.2c-0.4-0.3-0.7-0.6-1.1-0.8c-5.6-3.5-13-1.9-16.6,3.7c-3.5,5.6-1.8,13,3.8,16.5
	c1.9,1.2,4.1,1.8,6.3,1.8c0.9,0,1.8-0.1,2.7-0.3c6.4-1.5,10.5-7.9,9-14.3c-0.3-1.5-0.9-2.8-1.8-4.1l6.4-6.3c3.5,2.9,8,4.6,12.6,4.5
	c1.1,0,2.2-0.1,3.3-0.3L55.7,93l3.4-0.9l-6.4-23.6c5.4-1.9,9.7-6.2,11.6-11.6l12.5,3.3c-0.5,4.5,2.6,8.5,7.1,9
	c0.3,0,0.6,0.1,0.9,0.1c0.6,0,1.2-0.1,1.8-0.2C91,68.1,93.7,63.8,92.8,59.4L92.8,59.4z M31.8,10.7c-0.4-1.9,0.8-3.7,2.6-4.1
	c0.2-0.1,0.5-0.1,0.8-0.1c0.6,0,1.3,0.2,1.8,0.5c1.6,1,2.1,3.1,1.1,4.7c-1,1.6-3.1,2.1-4.7,1.1C32.6,12.3,32,11.6,31.8,10.7
	L31.8,10.7z M24.3,82.7c-2.5,3.9-7.7,5.1-11.7,2.6c-3.9-2.5-5.1-7.7-2.6-11.7c2.5-3.9,7.7-5.1,11.7-2.6c1.9,1.2,3.2,3.1,3.7,5.3
	C25.9,78.5,25.5,80.8,24.3,82.7L24.3,82.7z M57.3,61.5c-6.3,6.2-16.4,6.2-22.6,0s-6.2-16.4,0-22.6c6.2-6.2,16.4-6.2,22.6,0
	C63.5,45.1,63.5,55.2,57.3,61.5L57.3,61.5z M88.8,63.6c-1.4,2.2-4.2,2.8-6.4,1.5c-2.2-1.4-2.8-4.2-1.5-6.4s4.2-2.8,6.4-1.5
	c0,0,0,0,0,0l0,0C89.5,58.6,90.1,61.5,88.8,63.6z"/>
</svg>
